<?xml version="1.0" encoding="UTF-8" standalone="no"?>
<!-- Created with Inkscape (http://www.inkscape.org/) -->

<svg
   xmlns:dc="http://purl.org/dc/elements/1.1/"
   xmlns:cc="http://creativecommons.org/ns#"
   xmlns:rdf="http://www.w3.org/1999/02/22-rdf-syntax-ns#"
   xmlns:svg="http://www.w3.org/2000/svg"
   xmlns="http://www.w3.org/2000/svg"
   xmlns:xlink="http://www.w3.org/1999/xlink"
   xmlns:sodipodi="http://sodipodi.sourceforge.net/DTD/sodipodi-0.dtd"
   xmlns:inkscape="http://www.inkscape.org/namespaces/inkscape"
   version="1.1"
   id="svg1757"
   width="530"
   height="749"
   viewBox="0 0 530 749"
   sodipodi:docname="cover.svg"
   inkscape:version="0.92.3 (2405546, 2018-03-11)">
  <metadata
     id="metadata1763">
    <rdf:RDF>
      <cc:Work
         rdf:about="">
        <dc:format>image/svg+xml</dc:format>
        <dc:type
           rdf:resource="http://purl.org/dc/dcmitype/StillImage" />
        <dc:title></dc:title>
      </cc:Work>
    </rdf:RDF>
  </metadata>
  <defs
     id="defs1761">
    <linearGradient
       inkscape:collect="always"
       xlink:href="#linearGradient6113"
       id="linearGradient6115"
       x1="534.46741"
       y1="330.71442"
       x2="842.40369"
       y2="330.71442"
       gradientUnits="userSpaceOnUse"
       gradientTransform="matrix(0.32285125,0,0,0.30472147,221.01312,110.59677)" />
    <linearGradient
       inkscape:collect="always"
       id="linearGradient6113">
      <stop
         style="stop-color:#b2d8d8;stop-opacity:1;"
         offset="0"
         id="stop6109" />
      <stop
         style="stop-color:#b2d8d8;stop-opacity:0;"
         offset="1"
         id="stop6111" />
    </linearGradient>
    <linearGradient
       inkscape:collect="always"
       xlink:href="#linearGradient6121"
       id="linearGradient6123"
       x1="153.59094"
       y1="250.97752"
       x2="323.8515"
       y2="250.97752"
       gradientUnits="userSpaceOnUse"
       gradientTransform="matrix(0.33501965,0,0,0.32458289,203.1106,107.43727)" />
    <linearGradient
       inkscape:collect="always"
       id="linearGradient6121">
      <stop
         style="stop-color:#ffffff;stop-opacity:1;"
         offset="0"
         id="stop6117" />
      <stop
         style="stop-color:#ffffff;stop-opacity:0;"
         offset="1"
         id="stop6119" />
    </linearGradient>
    <linearGradient
       inkscape:collect="always"
       xlink:href="#linearGradient6097"
       id="linearGradient6099"
       x1="195.26308"
       y1="609.54413"
       x2="562.7948"
       y2="609.54413"
       gradientUnits="userSpaceOnUse"
       gradientTransform="matrix(0.34597198,0,0,0.32892149,204.05436,114.04588)" />
    <linearGradient
       inkscape:collect="always"
       id="linearGradient6097">
      <stop
         style="stop-color:#66b2b2;stop-opacity:1;"
         offset="0"
         id="stop6093" />
      <stop
         style="stop-color:#66b2b2;stop-opacity:0;"
         offset="1"
         id="stop6095" />
    </linearGradient>
  </defs>
  <sodipodi:namedview
     pagecolor="#ffffff"
     bordercolor="#666666"
     borderopacity="1"
     objecttolerance="10"
     gridtolerance="10"
     guidetolerance="10"
     inkscape:pageopacity="0"
     inkscape:pageshadow="2"
     inkscape:window-width="1853"
     inkscape:window-height="1025"
     id="namedview1759"
     showgrid="false"
     inkscape:zoom="1.03"
     inkscape:cx="265"
     inkscape:cy="374.5"
     inkscape:window-x="67"
     inkscape:window-y="27"
     inkscape:window-maximized="1"
     inkscape:current-layer="svg1757" />
  <rect
     style="fill:#b2d8d8;fill-opacity:1;stroke:#ffffff;stroke-width:31.5;stroke-linecap:butt;stroke-linejoin:miter;stroke-miterlimit:9.89999962;stroke-dasharray:none;stroke-opacity:1;paint-order:markers stroke fill"
     id="rect2310"
     width="520.38837"
     height="357.73785"
     x="3.8834946"
     y="0.9708637" />
  <path
     style="fill:#66b2b2;fill-opacity:1;stroke:#ffffff;stroke-width:11.15167236;stroke-linecap:butt;stroke-linejoin:miter;stroke-miterlimit:9.89999962;stroke-dasharray:none;stroke-opacity:1;paint-order:markers stroke fill;opacity:1;"
     inkscape:connector-curvature="0"
     id="path4"
     d="m 344.17615,181.92173 -13.3457,-1.97525 c -1.22969,-5.54451 -3.29122,-10.67319 -6.4016,-15.28207 l 8.42696,-10.7425 c 0.32551,-0.41584 0.14467,-1.17821 -0.43401,-1.73266 l -9.00564,-8.66331 c -0.57867,-0.55444 -1.37434,-0.76236 -1.77218,-0.45048 l -11.21184,7.97025 c -4.81024,-2.98019 -10.163,-5.16334 -15.94975,-6.34156 l -2.06154,-12.44051 c -0.0723,-0.48514 -0.79567,-0.0694 -1.62752,-0.0694 h -12.76702 c -0.83186,0 -1.5552,-0.41582 -1.62753,0.0694 l -2.06154,12.8217 c -5.78675,1.17821 -11.1395,3.15343 -15.94974,6.13362 l -11.21183,-8.0742 c -0.43403,-0.31187 -1.2297,-0.13861 -1.80838,0.41584 l -9.0418,8.62865 c -0.57868,0.55445 -0.79569,1.31682 -0.47018,1.69801 l 8.31847,10.7425 c -3.11038,4.60888 -5.38893,9.73755 -6.6186,15.28208 l -14.82857,1.97523 c -0.50634,0.0694 -1.91687,0.76236 -1.91687,1.55939 v 12.23258 c 0,0.79703 1.41053,1.4901 1.91687,1.5594 l 14.32223,1.97523 c 1.22968,5.54453 3.76139,10.67319 6.87177,15.28208 l -8.20996,10.7425 c -0.32551,0.41583 -0.0362,1.1782 0.5425,1.73266 l 9.07798,8.66331 c 0.57868,0.55445 1.41051,0.76237 1.80836,0.45049 l 11.21184,-7.97025 c 4.81024,2.98019 10.19916,5.16333 15.94973,6.34154 l 2.06155,14.13851 c 0.0723,0.48515 0.79567,1.80198 1.62753,1.80198 h 12.76702 c 0.83185,0 1.55519,-1.28217 1.62753,-1.80198 l 2.06154,-13.68802 c 5.78674,-1.1782 11.1395,-3.56927 15.94974,-6.54945 l 11.21183,7.86629 c 0.43402,0.31188 1.22969,0.0348 1.80836,-0.51981 l 9.04181,-8.69796 c 0.57867,-0.55446 0.79569,-1.35148 0.47019,-1.73266 l -8.31847,-10.7425 c 3.11038,-4.60888 5.38892,-9.7722 6.6186,-15.28207 l 12.91169,-1.97524 c 0.50635,-0.0694 0.0362,-0.76237 0.0362,-1.5594 v -12.23258 c 0.0362,-0.79702 0.54251,-1.49008 0,-1.55938 z"
     class="st0" />
  <path
     style="fill:#008080;stroke:#ffffff;stroke-width:7.08042622;stroke-linecap:round;stroke-linejoin:round;stroke-miterlimit:10;stroke-opacity:1;opacity:1;"
     inkscape:connector-curvature="0"
     id="path12"
     d="m 548.31751,198.72141 -22.89385,-3.29205 c -2.06153,-9.25242 -5.7506,-17.88108 -10.95867,-25.57409 l 13.99672,-17.98502 c 0.50633,-0.65841 0.18083,-1.97523 -0.79569,-2.87622 l -15.1179,-14.51969 c -0.97651,-0.93564 -2.3147,-1.28218 -3.00187,-0.79703 l -18.77079,13.34149 c -8.02912,-4.99007 -17.03477,-8.62865 -26.69142,-10.60388 L 460.64816,114.722 c -0.14467,-0.83169 -1.33819,-1.00494 -2.71254,-1.00494 h -21.37484 c -1.37435,0 -2.56787,0.17325 -2.71253,1.00494 l -3.43589,21.90083 c -9.65666,1.97523 -18.66229,5.50986 -26.69142,10.49992 l -18.77078,-13.41078 c -0.68719,-0.48515 -2.06153,-0.17327 -3.00189,0.76237 l -15.15407,14.48504 c -0.97652,0.93564 -1.33819,2.21782 -0.83184,2.87622 l 13.92439,17.98501 c -5.20809,7.69302 -9.00564,16.32167 -11.06718,25.57408 l -23.58104,3.29207 c -0.86801,0.13861 -1.98919,1.28216 -1.98919,2.59899 v 20.48006 c 0,1.31682 1.12118,2.46037 1.98919,2.59898 l 23.36404,3.29206 c 2.06152,9.25242 5.96759,17.88106 11.17566,25.57408 l -13.8882,17.98502 c -0.50635,0.65842 -0.10851,1.97524 0.83184,2.87622 l 15.1179,14.48505 c 0.97651,0.93564 2.3147,1.28217 3.00187,0.79703 l 18.7708,-13.34149 c 8.02913,4.99006 17.03477,8.62865 26.69141,10.60388 l 3.43589,22.45529 c 0.14467,0.83167 1.33819,1.80196 2.71253,1.80196 h 21.48335 c 1.37435,0 2.56787,-0.97029 2.71254,-1.80196 l 3.43588,-22.31667 c 9.65665,-1.97524 18.6623,-5.68314 26.69142,-10.6732 l 18.77079,13.30684 c 0.68717,0.48514 2.06153,0.13862 3.00187,-0.79702 l 15.1179,-14.48505 c 0.97652,-0.93564 1.33819,-2.21781 0.83186,-2.87622 l -13.9244,-17.98503 c 5.20809,-7.69301 9.00565,-16.32166 11.06718,-25.57408 l 22.67685,-3.29205 c 0.86801,-0.13862 1.12119,-1.28217 1.12119,-2.59898 V 201.3204 c 0,-1.31683 -0.25318,-2.49503 -1.12119,-2.59899 z"
     class="st2" />
  <path
     inkscape:connector-curvature="0"
     id="path4599-0"
     d="m 440.90126,254.97672 c -18.05152,-4.19113 -31.81352,-20.08023 -33.59685,-38.78969 l -0.4376,-4.59093 -6.5876,-0.1635 c -5.57313,-0.1383 -6.56041,-0.30028 -6.41085,-1.05178 0.33989,-1.70796 20.21315,-26.26992 21.14487,-26.13355 1.02392,0.14983 21.12047,25.19781 21.12047,26.32416 0,0.55148 -1.60147,0.73511 -6.41085,0.73511 -4.7269,0 -6.42568,0.19014 -6.46732,0.72387 -0.31366,4.01985 1.43449,10.10934 4.18382,14.57397 2.5389,4.12289 6.54662,7.65126 11.47518,10.10271 3.71817,1.84938 4.76603,2.10105 9.58562,2.30214 4.37075,0.18236 6.16301,-0.0115 9.32189,-1.00818 7.64343,-2.41167 14.51401,-9.00493 17.36305,-16.66223 1.87265,-5.033 2.13063,-12.7913 0.5995,-18.0278 -2.19092,-7.49289 -7.59246,-14.02225 -14.28627,-17.26918 -2.42878,-1.17809 -4.23316,-1.68912 -10.18936,-2.88577 -1.25722,-0.25258 -1.26839,-0.33471 -1.11494,-8.20251 l 0.155,-7.94737 3.76695,0.0896 c 4.67201,0.1112 10.47304,1.8927 16.30178,5.00631 3.42878,1.8316 5.69531,3.65978 9.80478,7.9086 4.58157,4.73691 5.71624,6.31215 7.94329,11.02767 3.68249,7.79721 4.52597,11.57445 4.52597,20.26813 0,8.73499 -0.85321,12.53825 -4.54693,20.26814 -2.22653,4.65955 -3.44274,6.34699 -7.94809,11.02767 -5.79331,6.01875 -10.63135,9.10189 -18.14099,11.56073 -5.19855,1.7021 -15.60402,2.10233 -21.15452,0.81364 z"
     style="fill:#66b2b2;fill-opacity:1;stroke:url(#linearGradient6115);stroke-width:0.56817412;stroke-opacity:1;opacity:1;" />
  <path
     inkscape:connector-curvature="0"
     id="path4599-0-3"
     d="m 281.72562,211.70402 c -10.36007,-2.19182 -18.25832,-10.5013 -19.28181,-20.28574 l -0.25114,-2.40093 -3.78074,-0.0855 c -3.19851,-0.0722 -3.76512,-0.15704 -3.67929,-0.55005 0.19506,-0.8932 11.60066,-13.73832 12.1354,-13.66701 0.58766,0.0784 12.12139,13.17764 12.12139,13.76669 0,0.28841 -0.9191,0.38445 -3.67929,0.38445 -2.71285,0 -3.6878,0.0994 -3.71171,0.37855 -0.18,2.10226 0.82329,5.28686 2.40117,7.62173 1.45712,2.15613 3.75722,4.00136 6.58581,5.28338 2.13391,0.96718 2.7353,1.09878 5.50135,1.20395 2.50845,0.0954 3.53706,-0.006 5.34999,-0.52724 4.38669,-1.26125 8.32983,-4.70929 9.96495,-8.71382 1.07474,-2.6321 1.22281,-6.68944 0.34405,-9.42795 -1.25739,-3.91856 -4.35743,-7.33319 -8.19912,-9.03122 -1.39392,-0.61611 -2.42948,-0.88335 -5.84785,-1.50917 -0.72153,-0.13209 -0.72795,-0.17504 -0.63988,-4.28965 l 0.089,-4.15622 2.16191,0.0468 c 2.68135,0.0581 6.01065,0.98982 9.35587,2.61814 1.96785,0.95787 3.26864,1.91395 5.62715,4.13594 2.62944,2.47725 3.28064,3.30106 4.55878,5.76712 2.11344,4.07768 2.59753,6.05307 2.59753,10.59958 0,4.56811 -0.48967,6.55709 -2.60956,10.59959 -1.27784,2.43678 -1.97585,3.31925 -4.56154,5.7671 -3.32489,3.14761 -6.10152,4.75999 -10.41143,6.04589 -2.98354,0.89015 -8.95542,1.09945 -12.14095,0.42551 z"
     style="fill:#b2d8d8;fill-opacity:1;stroke:url(#linearGradient6123);stroke-width:0.31127444;stroke-opacity:1;opacity:1;" />
  <path
     style="fill:#006666;fill-opacity:1;stroke:#ffffff;stroke-width:6.37238359;stroke-miterlimit:10;opacity:1;"
     inkscape:connector-curvature="0"
     id="path20"
     d="m 461.38636,300.90759 -27.16157,-3.98511 c -2.49555,-11.2623 -6.65478,-21.76222 -12.98405,-31.11859 l 17.17944,-21.90085 c 0.65101,-0.83167 0.28934,-2.39107 -0.86801,-3.49996 l -18.30062,-17.6385 c -1.19352,-1.14356 -2.78488,-1.55939 -3.61673,-0.93563 l -22.82152,16.25236 c -9.76514,-6.06432 -20.72382,-10.49993 -32.47817,-12.891 l -4.23156,-25.2622 c -0.14467,-1.00495 -1.62752,-0.0348 -3.29121,-0.0348 h -26.00425 c -1.66368,0 -3.14653,-0.97029 -3.29121,0.0348 l -4.15923,26.09388 c -11.75435,2.39106 -22.71302,6.41085 -32.47818,12.47516 l -22.85768,-16.46029 c -0.86801,-0.62375 -2.49553,-0.27723 -3.65288,0.83168 l -18.40912,17.56918 c -1.19353,1.14357 -1.62752,2.6683 -0.97652,3.49999 l 16.96243,21.86618 c -6.32927,9.35637 -10.95867,19.85629 -13.45421,31.11859 l -30.16346,3.98511 c -1.04885,0.13862 -3.94224,1.55941 -3.94224,3.15346 v 24.91566 c 0,1.59406 2.85722,3.01483 3.94224,3.15345 l 29.15077,3.98512 c 2.49555,11.26229 7.63129,21.76223 13.96056,31.11859 l -16.70925,21.90084 c -0.65101,0.83172 -0.0723,2.39109 1.12117,3.49996 l 18.4453,17.63855 c 1.19351,1.14354 2.8572,1.55937 3.68904,0.9356 l 22.85769,-16.25233 c 9.76516,6.06427 20.75999,10.49989 32.51434,12.89098 l 4.15923,28.7968 c 0.14468,1.00494 1.62753,3.67324 3.29121,3.67324 h 26.04041 c 1.6637,0 3.14655,-2.6683 3.29122,-3.67324 l 4.15922,-27.89581 c 11.75436,-2.39109 22.71302,-7.31181 32.47818,-13.37615 l 22.85768,16.00979 c 0.86802,0.62376 2.49555,0.0694 3.65289,-1.07427 l 18.40913,-17.67316 c 1.19352,-1.14353 1.62753,-2.73757 0.97651,-3.53461 l -16.96242,-21.90084 c 6.32926,-9.35638 10.95866,-19.89095 13.4542,-31.15325 l 26.18506,-3.98512 c 1.04886,-0.13862 -0.0362,-1.55939 -0.0362,-3.15343 v -24.91568 c 0.0362,-1.52474 1.12119,-2.94553 0.0723,-3.08415 z"
     class="st4" />
  <path
     inkscape:connector-curvature="0"
     id="path4599"
     d="M 332.15066,368.60858 C 309.06001,363.41145 291.4563,343.70853 289.17517,320.5083 l -0.55978,-5.69291 -8.42655,-0.20273 c -7.12887,-0.1715 -8.39174,-0.37236 -8.20044,-1.30424 0.43477,-2.11791 25.85571,-32.57542 27.04752,-32.40634 1.30976,0.18581 27.01628,31.24599 27.01628,32.6427 0,0.68386 -2.0485,0.91158 -8.20044,0.91158 -6.04642,0 -8.21941,0.23577 -8.27269,0.8976 -0.4012,4.98473 1.83493,12.53586 5.35175,18.07212 3.24764,5.1125 8.37411,9.4878 14.67851,12.52765 4.75609,2.29328 6.09648,2.60536 12.26147,2.85471 5.59084,0.22614 7.88343,-0.0142 11.92412,-1.25016 9.7771,-2.99055 18.56563,-11.16638 22.21001,-20.66162 2.39537,-6.24108 2.72537,-15.86159 0.76682,-22.355 -2.80251,-9.29139 -9.71191,-17.38796 -18.27432,-21.41423 -3.10677,-1.46088 -5.41485,-2.09457 -13.03374,-3.57845 -1.60818,-0.31322 -1.62246,-0.41505 -1.42616,-10.17134 l 0.19826,-9.85497 4.81851,0.11117 c 5.9762,0.13788 13.39657,2.34698 20.85244,6.20796 4.38595,2.27122 7.28517,4.53822 12.54184,9.80689 5.86051,5.87388 7.31192,7.82724 10.16066,13.67461 4.71046,9.66875 5.7894,14.35264 5.7894,25.13306 0,10.83161 -1.09139,15.54775 -5.81621,25.13305 -2.84807,5.77797 -4.40378,7.87043 -10.16683,13.67461 -7.41051,7.46343 -13.59911,11.28659 -23.20509,14.33561 -6.64973,2.11068 -19.95992,2.60696 -27.05985,1.00895 z"
     style="fill:#008080;fill-opacity:1;stroke:url(#linearGradient6099);stroke-width:0.71558017;stroke-opacity:1;opacity:1;" />
  <rect
     style="fill:#ffffff;fill-opacity:1;stroke:#ffffff;stroke-width:31.5;stroke-linecap:butt;stroke-linejoin:miter;stroke-miterlimit:9.89999962;stroke-dasharray:none;stroke-opacity:1;paint-order:markers stroke fill"
     id="rect2378"
     width="532.03882"
     height="162.13593"
     x="0"
     y="374.24271" />
</svg>
